<?xml version="1.0" standalone="no"?>
<!DOCTYPE svg PUBLIC "-//W3C//DTD SVG 1.1//EN" "http://www.w3.org/Graphics/SVG/1.1/DTD/svg11.dtd" >
<svg>
<metadata>
Created by FontForge 20090914 at Fri Feb 24 00:39:02 2012
 By root
Copyright (c) Tom Tor, 2000. All rights reserved. www.tomtor.com
</metadata>
<defs>
<font id="Silom-Bold" horiz-adv-x="530" >
  <font-face 
    font-family="Silom"
    font-weight="700"
    font-stretch="normal"
    units-per-em="1000"
    panose-1="2 0 8 0 0 0 0 2 0 4"
    ascent="800"
    descent="-200"
    x-height="465"
    cap-height="660"
    bbox="0 -199 2754 750"
    underline-thickness="50"
    underline-position="-50"
    unicode-range="U+000C-U+2122"
  />
<missing-glyph horiz-adv-x="500" 
 />
    <glyph glyph-name=".notdef" horiz-adv-x="500" 
 />
    <glyph glyph-name=".null" horiz-adv-x="0" 
 />
    <glyph glyph-name="nonmarkingreturn" horiz-adv-x="500" 
 />
    <glyph glyph-name="space" unicode=" " horiz-adv-x="500" 
 />
    <glyph glyph-name="space" unicode="&#xa0;" horiz-adv-x="500" 
 />
    <glyph glyph-name="caron" horiz-adv-x="2880" 
d="M210 330l-1 -195h60v-135h-135v60h-60l1 270h-75v135h74v195h135v-195h60l1 -135h-60zM439 330l-1 -195h60v-135h-135v60h-60v330h60v75h135l1 -135h-60zM708 390v-330h-75v-60h-135v135h75l1 195h-75l-1 135h135v-75h75zM1415 390v-390h-120l1 330h-135l-1 -330h-135
l1 330h-135l-1 -330h-135v465h600v-75h60zM1685 330l-1 -195h60v-135h-135v60h-60l1 270h-75l-1 135h75v195h135v-195h60l1 -135h-60zM1914 330l-1 -195h60v-135h-135v60h-60v330h60v75h135l1 -135h-60zM2183 390v-330h-75v-60h-135v135h75l1 195h-75l-1 135h135v-75h75z
M2565 465l1 -135h-135l-1 -60h-60v-270h-135v465h135v-75h60v75h135zM2732 340v-23h-118v23h-23v118h23v22h118v-22h22v-118h-22zM2729 457h-113v-117h113v117zM2638 434h70v-23h-47v-24h47v-23h-70v70z" />
    <glyph glyph-name="exclam" unicode="!" horiz-adv-x="275" 
d="M0 660h150v-480h-150v480zM0 0v90h150v-90h-150z" />
    <glyph glyph-name="quotedbl" unicode="&#x22;" horiz-adv-x="591" 
d="M224 661v-90h-75v-195h-149v195h74v90h150zM465 661v-90h-75v-195h-150v195h75v90h150z" />
    <glyph glyph-name="numbersign" unicode="#" horiz-adv-x="650" 
d="M524 376h-75v-90h75v-90h-75v-196h-150v196h-75v-196h-150v196h-74v90h74v90h-74v90h74v195h150v-195h75v195h150v-195h75v-90zM299 286v90h-75v-90h75z" />
    <glyph glyph-name="dollar" unicode="$" horiz-adv-x="575" 
d="M134 0v75h-134v110h299v90h-240v90h-59v90h59v105h75v99h165v-99h150v-106h-315v-89h240v-90h75v-90h-75v-110h-75v-75h-165v0z" />
    <glyph glyph-name="percent" unicode="%" horiz-adv-x="661" 
d="M74 571v90h75v-90h81v-90h75v180h155v-180h-75v-160h-80v-151h80v90h75v-90h75v-90h-75v-80h-75v80h-80v90h-75v-170h-156v170h75v151h81v160h-81v-99h-75v99h-74v90h74zM74 481h60v90h-60v-90zM385 80h75v90h-75v-90z" />
    <glyph glyph-name="ampersand" unicode="&#x26;" horiz-adv-x="714" 
d="M74 464h-74v105h74v90h323v-90h75v-105h-75v-104h-75v-90h75v-75h75v165h116v-165h-116v-73h116v-122h-116v122h-75v-122h-323v122h-74v148h74v194zM322 569h-173v-105h173v105zM322 195h-75v75h-98v-148h173v73z" />
    <glyph glyph-name="quotesingle" unicode="'" horiz-adv-x="350" 
d="M224 661v-90h-75v-195h-149v195h74v90h150z" />
    <glyph glyph-name="parenleft" unicode="(" horiz-adv-x="425" 
d="M299 750v-90h-75v-90h-75v-480h75v-90h75v-90h-150v90h-75v90h-74v480h74v90h75v90h150z" />
    <glyph glyph-name="parenright" unicode=")" horiz-adv-x="425" 
d="M149 750v-90h75v-90h75v-480h-75v-90h-75v-90h-149v90h74v90h75v480h-75v90h-74v90h149z" />
    <glyph glyph-name="asterisk" unicode="*" horiz-adv-x="535" 
d="M149 661h125v-105h60v105h75v-105h-75v-90h75v-90h-75v-90h75v-90h-75v90h-60v-90h-125v90h-75v-90h-74v90h74v90h-74v90h74v90h-74v105h74v-105h75v105z" />
    <glyph glyph-name="plus" unicode="+" horiz-adv-x="350" 
d="M224 331v-90h-75v-90h-75v90h-74v90h74v90h75v-90h75v0z" />
    <glyph glyph-name="comma" unicode="," horiz-adv-x="350" 
d="M0 -108v90h74v195h150v-195h-75v-90h-149z" />
    <glyph glyph-name="hyphen" unicode="-" horiz-adv-x="500" 
d="M0 330h374v-180h-374v180z" />
    <glyph glyph-name="period" unicode="." horiz-adv-x="275" 
d="M0 0v180h149v-180h-149z" />
    <glyph glyph-name="slash" unicode="/" horiz-adv-x="536" 
d="M164 164v-164h-164v164h82v165h82v165h82v166h164v-166h-83v-165h-81v-165h-82z" />
    <glyph glyph-name="zero" unicode="0" horiz-adv-x="515" 
d="M134 525v-390h60v-135h-135v60h-59v525h59v75h135v-135h-60zM389 585v-525h-60v-60h-135v135h60v390h-60v135h135v-75h60z" />
    <glyph glyph-name="one" unicode="1" horiz-adv-x="395" 
d="M269 660v-660h-135v390h-134v135h59v60h75v75h135z" />
    <glyph glyph-name="two" unicode="2" 
d="M209 195v-60h195v-135h-404v195h74v60h60l1 75h75l-1 60h60v135h-135v-60h-134v120h74v75h270v-75h60l1 -255h-60l-1 -75h-75v-60h-60z" />
    <glyph glyph-name="three" unicode="3" 
d="M344 390l1 -60h60l-1 -270h-60v-60h-270v60h-74v135h134v-60h135v120h-135v135h135v135h-135v-60h-134v120h74v75h270v-75h60v-195h-60z" />
    <glyph glyph-name="four" unicode="4" 
d="M404 255v-120h-60v-135h-135v660h135v-405h60zM134 390v-135h75v-120h-209v195h75l-1 135h60v120h75v-195h-75z" />
    <glyph glyph-name="five" unicode="5" 
d="M134 525v-60h210v-75h60v-330h-60v-60h-270v60h-74v135h134v-60h135l1 195h-270v330h404v-135h-270z" />
    <glyph glyph-name="six" unicode="6" horiz-adv-x="515" 
d="M119 525v-60h75l1 -135h-75l-1 -195h75v-135h-135v60h-59v525h59v75h135v-135h-75zM329 390h60v-330h-60v-60h-135v135h60l1 195h-60l-1 135h135v-75zM389 585v-60h-195v135h135v-75h60z" />
    <glyph glyph-name="seven" unicode="7" horiz-adv-x="515" 
d="M389 660v-195h-60l1 -135h-75l-1 -330h-135l1 330h75l-1 135h60v60h-254v135h389z" />
    <glyph glyph-name="eight" unicode="8" horiz-adv-x="515" 
d="M119 525v-135h135v-135h-135v-120h135v-135h-195v60h-59v270h60l-1 60h-59v195h59v75h195v-135h-135zM329 390l1 -60h60l-1 -270h-60v-60h-75v660h75v-75h60v-195h-60z" />
    <glyph glyph-name="nine" unicode="9" horiz-adv-x="569" 
d="M383 585h60v-120h-135v60h-120v-60h-135v120h60v75h270v-75v0zM308 465h135v-405h-60v-60h-270v60h-60v135h135v-60h120v120h-195l1 75h-60l-1 135h135v-75h120v75v0z" />
    <glyph glyph-name="colon" unicode=":" horiz-adv-x="275" 
d="M0 270v180h149v-180h-149zM0 0v180h149v-180h-149z" />
    <glyph glyph-name="semicolon" unicode=";" horiz-adv-x="350" 
d="M74 270v180h150v-180h-150zM0 -108v90h74v195h150v-195h-75v-90h-149z" />
    <glyph glyph-name="less" unicode="&#x3c;" horiz-adv-x="435" 
d="M74 421h75v105h160v-105h-75v-90h-85v-90h85v-90h75v-90h-160v90h-75v90h-74v90h74v90z" />
    <glyph glyph-name="equal" unicode="=" horiz-adv-x="604" 
d="M0 327h478v-180h-478v180zM0 606h478v-180h-478v180z" />
    <glyph glyph-name="greater" unicode="&#x3e;" horiz-adv-x="435" 
d="M234 331h75v-90h-75v-90h-75v-90h-159v90h74v90h85v90h-85v90h-74v105h159v-105h75v-90z" />
    <glyph glyph-name="question" unicode="?" horiz-adv-x="500" 
d="M255 270v90h75v210h-150v-120h-150v120h75v90h300v-90h75v-210h-75v-90h-75v-90h-150v90h75zM180 0v90h150v-90h-150z" />
    <glyph glyph-name="at" unicode="@" horiz-adv-x="725" 
d="M149 -1v90h-75v90h-74v270h74v90h75v105h300v-105h75v-90h75v-180h-75v-90h-75v90h-75v-90h-150v-90h225v-90h-300zM224 449h-75v-90h75v90zM149 269v-90h75v90h-75zM374 449v90h-150v-90h150zM224 359v-90h75v90h-75zM449 359v90h-75v-90h75z" />
    <glyph glyph-name="A" unicode="A" 
d="M329 601h75v-600h-135v135h-60v135h60v255h-60v135h120v-60v0zM134 526v-255h75v-135h-75v-135h-134v600h74v60h135v-135h-75v0z" />
    <glyph glyph-name="B" unicode="B" 
d="M344 390l1 -60h60l-1 -270h-60v-60h-135v135h60v120h-60v135h60v135h-60v135h135v-60h60v-210h-60zM134 390h75v-135h-75v-120h75v-135h-209v660h209v-135h-75v-135z" />
    <glyph glyph-name="C" unicode="C" 
d="M404 525h-270v-390h270v-75h-60v-60h-270v60h-74v540h74v60h270v-60h60v-75v0z" />
    <glyph glyph-name="D" unicode="D" 
d="M404 600v-540h-60v-60h-344v660h344v-60h60zM269 525h-135v-390h135v390z" />
    <glyph glyph-name="E" unicode="E" 
d="M134 525v-135h135v-135h-135v-120h270v-135h-404v660h404v-135h-270z" />
    <glyph glyph-name="F" unicode="F" 
d="M134 525v-135h210v-135h-210v-255h-134v660h404v-135h-270z" />
    <glyph glyph-name="G" unicode="G" horiz-adv-x="515" 
d="M119 525v-390h135v120h-60v135h195v-390h-330v60h-59v540h59v60h270v-60h60v-75h-270z" />
    <glyph glyph-name="H" unicode="H" horiz-adv-x="515" 
d="M389 660v-660h-135v255h-135v-255h-119v660h119v-270h135v270h135z" />
    <glyph glyph-name="I" unicode="I" horiz-adv-x="245" 
d="M119 660v-660h-119v660h119z" />
    <glyph glyph-name="J" unicode="J" horiz-adv-x="455" 
d="M329 660v-600h-60v-60h-269v135h194v525h135z" />
    <glyph glyph-name="K" unicode="K" horiz-adv-x="515" 
d="M194 390v-135h60v-60h75v-60h60v-135h-135v60h-60v75h-75v-135h-119v660h119v-135h75v75h60v60h135v-135h-60v-60h-75v-75h-60z" />
    <glyph glyph-name="L" unicode="L" horiz-adv-x="455" 
d="M329 135v-135h-329v660h119v-525h210z" />
    <glyph glyph-name="M" unicode="M" horiz-adv-x="665" 
d="M539 660v-660h-135v390h-75l1 -60h-135l-1 60h-60v-390h-134v660h134v-60h60v-75h135v75h75v60h135z" />
    <glyph glyph-name="N" unicode="N" 
d="M404 660v-660h-135v135h-75v120h-60v-255h-134v660h134v-135h60v-135h75v270h135z" />
    <glyph glyph-name="O" unicode="O" 
d="M134 525v-390h60v-135h-120v60h-74v540h74v60h120v-135h-60zM404 600v-540h-75v-60h-135v135h75v390h-75v135h135v-60h75z" />
    <glyph glyph-name="P" unicode="P" 
d="M134 525l1 -195h60l-1 -135h-60v-195h-134v660h194v-135h-60zM404 600v-345h-75v-60h-135l1 135h75l-1 195h-75v135h135v-60h75z" />
    <glyph glyph-name="Q" unicode="Q" 
d="M134 525v-390h60v-135h-120v60h-74v540h74v60h120v-135h-60zM329 60v-60h75v-75h-210v270h75v330h-75v135h135v-60h75v-540h-75z" />
    <glyph glyph-name="R" unicode="R" 
d="M134 525l1 -195h60l-1 -135h-60v-195h-134v660h194v-135h-60zM330 330l-1 -75h75v-255h-135v195h-75l1 135h75l-1 195h-75v135h135v-60h75l1 -270h-75z" />
    <glyph glyph-name="S" unicode="S" 
d="M134 525v-135h195l1 -60h75l-1 -270h-75v-60h-255v60h-74v75h269v120h-195l1 75h-75v270h74v60h255v-60h75v-75h-270z" />
    <glyph glyph-name="T" unicode="T" 
d="M404 660v-135h-135v-525h-135v525h-134v135h404z" />
    <glyph glyph-name="U" unicode="U" 
d="M404 660v-600h-75v-60h-255v60h-74v600h134v-525h135v525h135z" />
    <glyph glyph-name="V" unicode="V" 
d="M404 660v-405h-75v-120h-60v-135h-135v135h-60v120h-74v405h134v-405h135v405h135z" />
    <glyph glyph-name="W" unicode="W" horiz-adv-x="725" 
d="M599 660v-270h-60v-195h-75v-195h-120v195h-75v-195h-135v135h-60v255h-74v270h134v-195h75l1 -135h60l-1 135h75l1 -135h60l-1 135h60v195h135z" />
    <glyph glyph-name="X" unicode="X" horiz-adv-x="515" 
d="M269 390v-135h60v-120h60v-135h-120v135h-135v-135h-134v135h59v120h75v135h-75v135h-59v135h134v-135h135v135h120v-135h-60v-135h-60z" />
    <glyph glyph-name="Y" unicode="Y" horiz-adv-x="500" 
d="M458 660v-270h-60v-135h-60v-255h-135v255h-75v135h-60v270h135v-270h135v270h120z" />
    <glyph glyph-name="Z" unicode="Z" horiz-adv-x="582" 
d="M246 255v-120h210v-135h-404l-1 135h60v120h75v135h60v135h-195v135h405v-135h-75v-135h-60v-135h-75z" />
    <glyph glyph-name="bracketleft" unicode="[" horiz-adv-x="370" 
d="M244 1v-81h-244v826h244v-82h-82v-663h82z" />
    <glyph glyph-name="backslash" unicode="\" horiz-adv-x="401" 
d="M60 0l5 699h150l-5 -699h-150z" />
    <glyph glyph-name="bracketright" unicode="]" horiz-adv-x="370" 
d="M81 1v663h-81v82h244v-826h-244v81h81z" />
    <glyph glyph-name="asciicircum" unicode="^" horiz-adv-x="500" 
d="M0 376v90h74v105h75v90h75v-90h75v-105h75v-90h-150v90h-75v-90h-149z" />
    <glyph glyph-name="underscore" unicode="_" horiz-adv-x="575" 
d="M0 0h449v-90h-449v90z" />
    <glyph glyph-name="grave" unicode="`" horiz-adv-x="350" 
d="M149 661v-90h75v-195h-150v195h-74v90h149z" />
    <glyph glyph-name="a" unicode="a" 
d="M209 465v-135h-75v-195h75v-135h-135v60h-74v330h74v75h135zM404 465v-465h-195v135h60v195h-60v135h195z" />
    <glyph glyph-name="b" unicode="b" 
d="M404 390v-330h-60v-60h-210v135h135l1 195h-135l-1 135h210v-75h60zM134 660v-660h-134v660h134z" />
    <glyph glyph-name="c" unicode="c" horiz-adv-x="470" 
d="M134 330v-195h210v-75h-75v-60h-195v60h-74v330h74v75h195v-75h75v-60h-210z" />
    <glyph glyph-name="d" unicode="d" 
d="M404 660v-660h-135v660h135zM269 465l1 -135h-135l-1 -195h135v-135h-210v60h-59v330h59v75h210z" />
    <glyph glyph-name="e" unicode="e" 
d="M134 195v-60h270v-75h-75v-60h-270v60h-59v210h404v-75h-270zM404 390v-120h-135v60h-135v-60h-134v120h59v75h270v-75h75z" />
    <glyph glyph-name="f" unicode="f" horiz-adv-x="455" 
d="M329 660v-135h-135v-60h75l1 -135h-75l-1 -330h-120l1 330h-75v135h74v135h60v60h195z" />
    <glyph glyph-name="g" unicode="g" 
d="M404 465v-195h-135v60h-135v-60h-134v120h74v75h330zM404 270v-345h-75v-60h-195v60h-60v75h195v60h-195v75h-74v135h134v-75h135v75h135z" />
    <glyph glyph-name="h" unicode="h" 
d="M404 390v-390h-135l1 330h-135l-1 -330h-134v660h134v-195h195v-75h75z" />
    <glyph glyph-name="i" unicode="i" horiz-adv-x="260" 
d="M134 660v-135h-134v135h134zM134 465v-465h-134v465h134z" />
    <glyph glyph-name="j" unicode="j" horiz-adv-x="380" 
d="M254 660v-135h-120v135h120zM254 465v-540h-60v-60h-194v135h134v465h120z" />
    <glyph glyph-name="k" unicode="k" horiz-adv-x="515" 
d="M269 270v-75h60v-60h60v-135h-120v60h-75v75h-60v-135h-134v660h134l1 -330h60l-1 60h75v75h120l1 -135h-60l-1 -60h-60z" />
    <glyph glyph-name="l" unicode="l" horiz-adv-x="260" 
d="M134 660v-660h-134v660h134z" />
    <glyph glyph-name="m" unicode="m" horiz-adv-x="785" 
d="M659 390v-390h-120v330h-135v-330h-135v330h-135v-330h-134v465h599v-75h60z" />
    <glyph glyph-name="n" unicode="n" 
d="M404 390v-390h-135v330h-135v-330h-134v465h329v-75h75z" />
    <glyph glyph-name="o" unicode="o" 
d="M134 330v-195h60v-135h-135v60h-59v330h59v75h135v-135h-60zM404 390v-330h-75v-60h-135v135h75v195h-75v135h135v-75h75z" />
    <glyph glyph-name="p" unicode="p" 
d="M134 465v-600h-134v600h134zM404 390v-330h-75v-60h-195v135h135v195h-135v135h195v-75h75z" />
    <glyph glyph-name="q" unicode="q" 
d="M404 465v-600h-135v600h135zM134 330v-195h135v-135h-210v60h-59v330h59v75h210v-135h-135z" />
    <glyph glyph-name="r" unicode="r" horiz-adv-x="455" 
d="M329 465v-135h-135v-60h-60v-270h-134v465h134v-75h60v75h135z" />
    <glyph glyph-name="s" unicode="s" horiz-adv-x="455" 
d="M134 330v-60h120v-75h75v-135h-75v-60h-254v135h194v60h-135v75h-59v120h59v75h270v-135h-195z" />
    <glyph glyph-name="t" unicode="t" horiz-adv-x="395" 
d="M210 330l-1 -195h60v-135h-135v60h-60l1 270h-75v135h74v195h135v-195h60l1 -135h-60z" />
    <glyph glyph-name="u" unicode="u" 
d="M404 465v-465h-330v60h-74v405h134v-330h135v330h135z" />
    <glyph glyph-name="v" unicode="v" 
d="M404 465v-195h-60v-135h-75v-135h-135v135h-60v135h-74v195h134v-195h135v195h135z" />
    <glyph glyph-name="w" unicode="w" horiz-adv-x="650" 
d="M524 465v-330h-60v-135h-135v60h-135v-60h-135v135h-59v330h134v-270h60v135h135v-135h75v270h120z" />
    <glyph glyph-name="x" unicode="x" 
d="M269 270v-75h60v-60h75v-135h-135v135h-135v-135h-134v135h74v60h60v75h-60v60h-74v135h134v-135h135v135h135v-135h-75v-60h-60z" />
    <glyph glyph-name="y" unicode="y" horiz-adv-x="515" 
d="M389 465v-540h-60v-60h-195v60h-75v75h195v60h-195v75h-59v330h134v-270h120v270h135z" />
    <glyph glyph-name="z" unicode="z" horiz-adv-x="500" 
d="M257 195v-60h210v-135h-405v135h75v60h60v75h60v60h-195v135h405v-135h-75v-60h-60v-75h-75z" />
    <glyph glyph-name="braceleft" unicode="{" horiz-adv-x="425" 
d="M224 0h75v-90h-150v90h-75v282h-74v90h74v286h75v90h150v-90h-75v-286h-75v-90h75v-282z" />
    <glyph glyph-name="bar" unicode="|" horiz-adv-x="290" 
d="M0 701h164v-735h-164v735z" />
    <glyph glyph-name="braceright" unicode="}" horiz-adv-x="425" 
d="M74 282h75v90h-75v286h-74v90h149v-90h75v-286h75v-90h-75v-282h-75v-90h-149v90h74v282z" />
    <glyph glyph-name="quotesinglbase" unicode="&#x201a;" horiz-adv-x="350" 
d="M0 -108v90h74v195h150v-195h-75v-90h-149z" />
    <glyph glyph-name="florin" unicode="&#x192;" horiz-adv-x="425" 
d="M149 660h150v-90h-75v-150h75v-90h-75v-439h-75v-90h-149v90h74v439h-74v90h74v150h75v90z" />
    <glyph glyph-name="quotedblbase" unicode="&#x201e;" horiz-adv-x="591" 
d="M0 -108v90h74v195h150v-195h-75v-90h-149zM240 -108v90h75v195h150v-195h-75v-90h-150z" />
    <glyph glyph-name="ellipsis" unicode="&#x2026;" horiz-adv-x="785" 
d="M0 0v180h149v-180h-149zM260 0v180h150v-180h-150zM509 0v180h150v-180h-150z" />
    <glyph glyph-name="endash" unicode="&#x2013;" horiz-adv-x="604" 
d="M0 330h478v-180h-478v180z" />
    <glyph glyph-name="emdash" unicode="&#x2014;" horiz-adv-x="1126" 
d="M0 330h1000v-180h-1000v180z" />
    <glyph glyph-name="trademark" unicode="&#x2122;" horiz-adv-x="855" 
d="M547 660h91v-91h91v-182h-91v182h-91v-182h-91v182h-92v-182h-92v182h-91v-182h-91v182h-90v91h272v-91h92v91h92v-91h91v91z" />
    <glyph glyph-name="cent" unicode="&#xa2;" horiz-adv-x="520" 
d="M149 0v90h-75v90h-74v286h74v90h75v105h95v-105h75v-90h75v-90h-150v90h-95v-286h95v90h150v-90h-75v-90h-75v-90h-95z" />
    <glyph glyph-name="sterling" unicode="&#xa3;" horiz-adv-x="575" 
d="M299 180h150v-90h-75v-90h-374v555h74v90h225v-90h75v-105h-150v105h-75v-195h150v-90h-150v-180h150v90z" />
    <glyph glyph-name="section" unicode="&#xa7;" horiz-adv-x="500" 
d="M0 450v105h74v90h225v-90h-150v-105h150v-90h75v-90h-75v-90h75v-90h-75v-90h-225v90h150v90h-150v90h-74v90h74v90h-74zM224 360h-75v-90h75v90z" />
    <glyph glyph-name="copyright" unicode="&#xa9;" horiz-adv-x="762" 
d="M552 90v-90h-464v90h-88v481h88v90h464v-90h84v-481h-84zM537 571h-434v-481h434v481zM163 466h314v-90h-224v-106h224v-90h-314v286z" />
    <glyph glyph-name="registered" unicode="&#xae;" horiz-adv-x="820" 
d="M603 90v-90h-457v90h-91v479h91v91h457v-91h91v-479h-91zM598 568h-447v-477h447v477zM511 183h-91v91h-91v-91h-91v294h273v-91h-91v-112h91v-91z" />
    <glyph glyph-name="germandbls" unicode="&#xdf;" horiz-adv-x="575" 
d="M224 0v90h75v149h-75v90h75v242h-75v-105h-75v-556h-149v556h74v105h75v90h225v-90h75v-242h-75v-90h75v-149h-75v-90h-150z" />
    <glyph glyph-name="infinity" horiz-adv-x="815" 
d="M614 239v-90h-240v90h-75v-90h-225v90h-74v90h74v90h225v-90h75v90h240v-90h75v-90h-75zM224 329h-75v-90h75v90zM524 329h-75v-90h75v90z" />
  </font>
</defs>
</svg>
